<svg xmlns="http://www.w3.org/2000/svg" viewBox="0 0 1806.64 88.93">
  <path d="M10.51,20.85c10.08-2.9,29.2-6.88,57-6.32" transform="translate(0 -0.11)" fill="none" stroke="#ffc650" stroke-linecap="round" stroke-linejoin="round" stroke-width="4.286" stroke-dasharray="0,8.847000122070312"/>
  <path d="M79.94,15.22c18.44,2,31.12,8,42.17,13.18" transform="translate(0 -0.11)" fill="none" stroke="#ffc650" stroke-linecap="round" stroke-linejoin="round" stroke-width="4.286" stroke-dasharray="0,8.07800006866455"/>
  <path d="M133.21,33.9c8.12,4.55,12.87,8.82,16.32,12.86" transform="translate(0 -0.11)" fill="none" stroke="#ffc650" stroke-linecap="round" stroke-linejoin="round" stroke-width="4.286" stroke-dasharray="0,8.357000350952148"/>
  <path d="M154,57.8c-.94,11.86-15.26,26.65-33.66,12.23" transform="translate(0 -0.11)" fill="none" stroke="#ffc650" stroke-linecap="round" stroke-linejoin="round" stroke-width="4.286" stroke-dasharray="0,8.168000221252441"/>
  <path d="M114.95,59.52c-.74-11.12,8.38-27.29,51.94-40.26" transform="translate(0 -0.11)" fill="none" stroke="#ffc650" stroke-linecap="round" stroke-linejoin="round" stroke-width="4.286" stroke-dasharray="0,8.246999740600586"/>
  <path d="M179.16,15.86C246.55-1.88,291.63.54,344.39,17.5" transform="translate(0 -0.11)" fill="none" stroke="#ffc650" stroke-linecap="round" stroke-linejoin="round" stroke-width="4.286" stroke-dasharray="0,8.609000205993652"/>
  <path d="M356.45,21.58c53.26,18.76,108.41,46.76,183.65,24" transform="translate(0 -0.11)" fill="none" stroke="#ffc650" stroke-linecap="round" stroke-linejoin="round" stroke-width="4.286" stroke-dasharray="0,8.416999816894531"/>
  <path d="M552.47,41.6C625.16,18,661.95,5.36,701,4.24" transform="translate(0 -0.11)" fill="none" stroke="#ffc650" stroke-linecap="round" stroke-linejoin="round" stroke-width="4.286" stroke-dasharray="0,8.779999732971191"/>
  <path d="M714.18,4.39A146.44,146.44,0,0,1,777.1,23" transform="translate(0 -0.11)" fill="none" stroke="#ffc650" stroke-linecap="round" stroke-linejoin="round" stroke-width="4.286" stroke-dasharray="0,8.822999954223633"/>
  <path d="M788.52,29c17.32,8.25,60.49,27.39,93,29.81" transform="translate(0 -0.11)" fill="none" stroke="#ffc650" stroke-linecap="round" stroke-linejoin="round" stroke-width="4.286" stroke-dasharray="0,8.536999702453613"/>
  <path d="M894.09,58.84C927.5,56,944,30.27,936.41,15" transform="translate(0 -0.11)" fill="none" stroke="#ffc650" stroke-linecap="round" stroke-linejoin="round" stroke-width="4.286" stroke-dasharray="0,8.26200008392334"/>
  <path d="M927.84,6.6C918.13,1.92,907.65,8.81,905,17" transform="translate(0 -0.11)" fill="none" stroke="#ffc650" stroke-linecap="round" stroke-linejoin="round" stroke-width="4.286" stroke-dasharray="0,8.081000328063965"/>
  <line x1="922.17" y1="56.64" x2="922.17" y2="56.64" fill="none" stroke="#ffc650" stroke-linecap="round" stroke-linejoin="round" stroke-width="4.286"/>
  <path d="M929.05,62.07c12.48,8.42,30.17,14.45,53.91,14.34" transform="translate(0 -0.11)" fill="none" stroke="#ffc650" stroke-linecap="round" stroke-linejoin="round" stroke-width="4.286" stroke-dasharray="0,8.709890365600586"/>
  <line x1="987.32" y1="76.21" x2="987.32" y2="76.21" fill="none" stroke="#ffc650" stroke-linecap="round" stroke-linejoin="round" stroke-width="4.286"/>
  <line x1="905.45" y1="29.71" x2="905.45" y2="29.71" fill="none" stroke="#ffc650" stroke-linecap="round" stroke-linejoin="round" stroke-width="4.286"/>
  <path d="M908.27,38.36q.9,2,2.05,4" transform="translate(0 -0.11)" fill="none" stroke="#ffc650" stroke-linecap="round" stroke-linejoin="round" stroke-width="4.286" stroke-dasharray="0,9.012539863586426"/>
  <line x1="912.73" y1="46.07" x2="912.73" y2="46.07" fill="none" stroke="#ffc650" stroke-linecap="round" stroke-linejoin="round" stroke-width="4.286"/>
  <path d="M995.72,76.25c58.25-5.62,83-31.71,135-50.18" transform="translate(0 -0.11)" fill="none" stroke="#ffc650" stroke-linecap="round" stroke-linejoin="round" stroke-width="4.286" stroke-dasharray="0,8.505999565124512"/>
  <path d="M1137.75,23c55-18,115.31-27.58,175.63-15.21" transform="translate(0 -0.11)" fill="none" stroke="#ffc650" stroke-linecap="round" stroke-linejoin="round" stroke-width="4.286" stroke-dasharray="0,8.449000358581543"/>
  <path d="M1386.53 39.78c9.95 9.57 10.23 17.36 7.35 27.44M1319.75 9.29c26.14 5.69 44.78 13.34 57 22" transform="translate(0 -0.11)" fill="none" stroke="#ffc650" stroke-linecap="round" stroke-linejoin="round" stroke-width="4.286" stroke-dasharray="0,8.527000427246094"/>
  <path d="M1387.7,77.7c-11.15,9.15-32.1-.33-31.5-17.71" transform="translate(0 -0.11)" fill="none" stroke="#ffc650" stroke-linecap="round" stroke-linejoin="round" stroke-width="4.286" stroke-dasharray="0,8.102999687194824"/>
  <path d="M1359.94,48.4c11.37-17.14,47.39-25,88.89-25.77" transform="translate(0 -0.11)" fill="none" stroke="#ffc650" stroke-linecap="round" stroke-linejoin="round" stroke-width="4.286" stroke-dasharray="0,8.28499984741211"/>
  <path d="M1461.58,22.63c45.84.71,101,9.31,139.21,24.66" transform="translate(0 -0.11)" fill="none" stroke="#ffc650" stroke-linecap="round" stroke-linejoin="round" stroke-width="4.286" stroke-dasharray="0,8.609999656677246"/>
  <path d="M1612.82,52.4c36.9,15.93,76.09,33.34,112.53,34.44" transform="translate(0 -0.11)" fill="none" stroke="#ffc650" stroke-linecap="round" stroke-linejoin="round" stroke-width="4.286" stroke-dasharray="0,8.769000053405762"/>
  <path d="M1738.37,86.26c29.63-4.11,54.75-27,63.14-35.49" transform="translate(0 -0.11)" fill="none" stroke="#ffc650" stroke-linecap="round" stroke-linejoin="round" stroke-width="4.286" stroke-dasharray="0,8.663999557495117"/>
  <path d="M1804.5,47.63h0M1729.74,86.9h0m-125-38h0M1453,22.59h0M1356.7,56h0m35.74,15.25h0M904.37,21h0m29.75-9.43h0M885.83,59.06h0m-105-33.79h0M705.36,4.16h0M544.11,44.31h0M348.49,18.84h0m-177.63-.72h0M117.27,67.36h0M152.13,50h0M125.76,30.11h0M71.88,14.65h0M2.14,23.71h0" transform="translate(0 -0.11)" fill="none" stroke="#ffc650" stroke-linecap="round" stroke-linejoin="round" stroke-width="4.286"/>
</svg>
