<svg xmlns="http://www.w3.org/2000/svg" viewBox="0 0 43.69 74.47">
  <path d="M35.47 0H8.18A8.19 8.19 0 0 0 0 8.18v58.09a8.19 8.19 0 0 0 8.18 8.18h27.29a8.19 8.19 0 0 0 8.18-8.19V8.17A8.19 8.19 0 0 0 35.47 0zM21.86 73a4.11 4.11 0 1 1 4.11-4.12 4.11 4.11 0 0 1-4.1 4.07zm18.45-10.92H3.41V8.15a4.81 4.81 0 0 1 4.8-4.8H35.5a4.81 4.81 0 0 1 4.8 4.8z" fill="#fff"/>
  <path d="M33.87 29.52a1.13 1.13 0 0 0-.91 1.31 11.28 11.28 0 1 1-9.76-9.22 11.16 11.16 0 0 1 5 1.84 1.13 1.13 0 1 0 1.26-1.87 13.51 13.51 0 1 0 5.77 8.86 1.13 1.13 0 0 0-1.36-.92z" fill="#fff"/>
  <path d="M34.87 21.81a1.69 1.69 0 0 0-2.37.32L21.73 36.3l-5.08-6a1.69 1.69 0 0 0-2.59 2.17l6.44 7.67a1.69 1.69 0 0 0 1.29.6 1.69 1.69 0 0 0 1.3-.67l12-15.85a1.69 1.69 0 0 0-.22-2.41z" fill="#fff"/>
</svg>
