<svg xmlns="http://www.w3.org/2000/svg" viewBox="0 0 32 32">
  <path d="M28 32H4a4 4 0 0 1-4-4V4a4 4 0 0 1 4-4h24a4 4 0 0 1 4 4v24a4 4 0 0 1-4 4" fill="#fcb316"/>
  <path d="M26.75 9.19a8.77 8.77 0 0 1-2.52.69 4.4 4.4 0 0 0 1.93-2.43 8.77 8.77 0 0 1-2.79 1.07 4.39 4.39 0 0 0-7.48 4 12.47 12.47 0 0 1-9.05-4.59 4.4 4.4 0 0 0 1.36 5.86 4.38 4.38 0 0 1-2-.55v.06a4.39 4.39 0 0 0 3.52 4.3 4.41 4.41 0 0 1-2 .08 4.4 4.4 0 0 0 4.1 3 8.88 8.88 0 0 1-6.5 1.82A12.49 12.49 0 0 0 24.58 12v-.57a8.92 8.92 0 0 0 2.19-2.27" fill="#fff"/>
</svg>
