<svg xmlns="http://www.w3.org/2000/svg" viewBox="0 0 81.46 52.48">
  <path d="M69.29 0a12.18 12.18 0 0 0-11.54 8.34H1.54A1.54 1.54 0 0 0 0 9.88v41.14a1.54 1.54 0 0 0 0 .17v.29l.06.14.07.13.09.14v.07l.15.14.09.08.18.11h.09l.24.08h.06a1.54 1.54 0 0 0 .32 0H67.1a1.54 1.54 0 0 0 .32 0h.06l.24-.08.09-.05.18-.11.09-.08.15-.14v-.07l.09-.13.07-.13.06-.14v-.29a1.53 1.53 0 0 0 0-.16V24.31h.62a12.17 12.17 0 0 0 0-24.34zM57.16 11.42v.75a12.17 12.17 0 0 0 .23 2.35L34.1 31.69l-27-20.27zM3.1 12.53L24.96 29 3.1 47.6zM5.74 49.4l21.77-18.55L33.1 35a1.64 1.64 0 0 0 2 0l5.93-4.38 22 18.72zm59.87-1.8L43.54 28.8l15-11a12.22 12.22 0 0 0 7.1 6zm3.7-26a9.47 9.47 0 1 1 9.47-9.47 9.48 9.48 0 0 1-9.49 9.51z" fill="#fff"/>
  <path d="M69.66 10.54V8.37c.73.08 1.19.44 1.76.44a1.13 1.13 0 0 0 1.09-1.21c0-1.17-1.88-1.57-2.85-1.6v-.51c0-.44 0-.77-.44-.77s-.44.33-.44.77V6a3.69 3.69 0 0 0-3.51 3.67c0 2.33 2 2.76 3.51 3.21v2.72c-.95-.1-1.76-.62-2.46-.62a1.09 1.09 0 0 0-1.09 1.16c0 1.4 2.23 1.76 3.56 1.79v.51c0 .38 0 .77.44.77s.44-.39.44-.77v-.52a3.76 3.76 0 0 0 3.7-3.74c-.01-2.62-2.13-3.18-3.71-3.64zm-.88-.29c-.52-.2-.86-.44-.86-.86a1 1 0 0 1 .86-1zm.88 5.3v-2.38c.62.21 1.06.52 1.06 1.06a1.31 1.31 0 0 1-1.06 1.32z" fill="#fff"/>
</svg>
