<svg xmlns="http://www.w3.org/2000/svg" viewBox="0 0 69.75 66.84">
  <path d="M69.79 33.16a6.33 6.33 0 1 0-8.19 6.06c-.35 13.28-7.17 23.91-15.52 23.91-5.52 0-10.75-5-13.51-12.72a1.83 1.83 0 0 0 .2-.32c11.7-24 14.8-38.94 9.46-45.71-2.51-3.19-6.67-4.31-12.37-3.36a3.43 3.43 0 1 0 .75 3.61c4.23-.69 7.11 0 8.73 2 3.41 4.32 1.33 14.08-2.19 23.89a1.82 1.82 0 0 0-.3.39 14.24 14.24 0 0 1-19.61 5.25 1.82 1.82 0 0 0-.62-.22c-7.65-7.6-14.08-15.9-12.78-21.42.6-2.55 2.92-4.37 7-5.53a3.43 3.43 0 1 0-1.32-3.45C4.25 7.11 1.11 9.84.21 13.68c-2 8.39 7.15 20.63 27.9 37.42a1.82 1.82 0 0 0 .85.36c3.31 9.48 9.77 15.34 17 15.34 10.36 0 18.82-12.28 19.2-27.58a6.34 6.34 0 0 0 4.63-6.06zm-47 8.57c.55.05 1.09.09 1.64.09a17.86 17.86 0 0 0 9.25-2.58c-1.31 3-2.64 5.91-3.86 8.44-2.19-1.72-4.59-3.74-7.03-5.92zm40.63-5.91a2.65 2.65 0 1 1 2.65-2.65 2.66 2.66 0 0 1-2.65 2.67z" fill="#fff"/>
</svg>
