<svg xmlns="http://www.w3.org/2000/svg" viewBox="0 0 32 32">
  <path d="M28 32H4a4 4 0 0 1-4-4V4a4 4 0 0 1 4-4h24a4 4 0 0 1 4 4v24a4 4 0 0 1-4 4" fill="#fcb316"/>
  <path d="M16.15 26.88h-.3a5.22 5.22 0 0 1-3.2-1.26 4.68 4.68 0 0 0-1.85-.95 6 6 0 0 0-1-.08 6.65 6.65 0 0 0-1.35.15 3 3 0 0 1-.5.07.32.32 0 0 1-.35-.25c-.06-.19-.1-.37-.13-.55-.1-.46-.17-.74-.36-.77-2.24-.35-2.88-.82-3-1.15a.42.42 0 0 1 0-.14.25.25 0 0 1 .21-.26c3.45-.57 5-4.09 5.05-4.24a1.31 1.31 0 0 0 .12-1.1c-.24-.56-1-.8-1.52-1l-.34-.11c-1-.4-1.1-.82-1.06-1a1 1 0 0 1 .94-.61.65.65 0 0 1 .28.06 3 3 0 0 0 1.23.32 1 1 0 0 0 .73-.23v-.73c-.1-1.63-.23-3.65.29-4.81a6.23 6.23 0 0 1 5.72-3.74h.48a6.25 6.25 0 0 1 5.8 3.74c.52 1.16.39 3.18.29 4.81v.73a1 1 0 0 0 .67.23 3.06 3.06 0 0 0 1.16-.32.86.86 0 0 1 .36-.07 1.09 1.09 0 0 1 .41.08.76.76 0 0 1 .58.62c0 .24-.18.6-1.07 1l-.34.11c-.51.16-1.28.41-1.52 1a1.31 1.31 0 0 0 .12 1.1c.07.15 1.61 3.67 5.06 4.24a.25.25 0 0 1 .21.26.43.43 0 0 1 0 .14c-.14.33-.78.81-3 1.15-.18 0-.25.27-.36.77 0 .18-.08.36-.13.55a.3.3 0 0 1-.32.24 2.8 2.8 0 0 1-.5-.06 6.72 6.72 0 0 0-1.35-.14 6 6 0 0 0-1 .08 4.67 4.67 0 0 0-1.85.94 5.22 5.22 0 0 1-3.2 1.26" fill="#fff"/>
  <path d="M16.24 4.74a6 6 0 0 1 5.57 3.59c.49 1.1.37 3.09.26 4.69v.83l.07.08a1.2 1.2 0 0 0 .85.32 3.31 3.31 0 0 0 1.26-.34.6.6 0 0 1 .25 0 .85.85 0 0 1 .32.06c.24.08.41.24.41.39s-.06.38-.91.71l-.32.11c-.55.18-1.39.44-1.68 1.11a1.55 1.55 0 0 0 .13 1.31c.1.23 1.68 3.8 5.25 4.39a.16.16 0 0 1 0 .06c-.06.14-.44.63-2.83 1-.37.06-.46.48-.57 1 0 .17-.08.35-.13.53s0 .06-.08.06a2.67 2.67 0 0 1-.45-.06 6.93 6.93 0 0 0-1.4-.15 6.18 6.18 0 0 0-1 .09 4.85 4.85 0 0 0-2 1 5 5 0 0 1-3.05 1.22h-.3a5 5 0 0 1-3.05-1.21 4.83 4.83 0 0 0-2-1 6.17 6.17 0 0 0-1-.09 6.82 6.82 0 0 0-1.4.16 2.93 2.93 0 0 1-.45.07c-.09 0-.09 0-.11-.07s-.09-.36-.13-.54c-.11-.49-.2-.91-.57-1-2.39-.37-2.77-.86-2.83-1a.17.17 0 0 1 0-.06c3.56-.59 5.15-4.15 5.25-4.39a1.55 1.55 0 0 0 .13-1.31c-.28-.66-1.12-.93-1.68-1.11l-.32-.11c-.72-.28-.94-.57-.91-.74s.38-.4.69-.4a.41.41 0 0 1 .17 0 3.22 3.22 0 0 0 1.33.35 1.24 1.24 0 0 0 .93-.32l.07-.07v-.84c-.1-1.6-.23-3.59.26-4.69a6 6 0 0 1 5.56-3.58h.48" fill="#fff"/>
</svg>
