<svg xmlns="http://www.w3.org/2000/svg" viewBox="0 0 32 32">
  <path d="M28 32H4a4 4 0 0 1-4-4V4a4 4 0 0 1 4-4h24a4 4 0 0 1 4 4v24a4 4 0 0 1-4 4" fill="#fcb316"/>
  <path d="M16 6.36c3.08 0 3.45 0 4.67.07a6.38 6.38 0 0 1 2.14.4A3.83 3.83 0 0 1 25 9a6.4 6.4 0 0 1 .4 2.14c.06 1.22.07 1.58.07 4.67s0 3.45-.07 4.67a6.39 6.39 0 0 1-.4 2.14 3.83 3.83 0 0 1-2.19 2.19 6.39 6.39 0 0 1-2.14.4c-1.22.06-1.58.07-4.67.07s-3.45 0-4.67-.07a6.39 6.39 0 0 1-2.15-.4 3.83 3.83 0 0 1-2.19-2.19 6.35 6.35 0 0 1-.4-2.14c-.06-1.22-.07-1.58-.07-4.67s0-3.45.07-4.67A6.37 6.37 0 0 1 6.99 9a3.82 3.82 0 0 1 2.19-2.19 6.39 6.39 0 0 1 2.15-.4c1.22-.06 1.58-.07 4.67-.07m0-2.08c-3.14 0-3.53 0-4.76.07a8.48 8.48 0 0 0-2.8.54 5.9 5.9 0 0 0-3.38 3.38 8.51 8.51 0 0 0-.54 2.8c-.06 1.23-.07 1.63-.07 4.76s0 3.53.07 4.76a8.51 8.51 0 0 0 .54 2.8 5.9 5.9 0 0 0 3.38 3.38 8.46 8.46 0 0 0 2.8.54c1.23.06 1.63.07 4.76.07s3.53 0 4.76-.07a8.46 8.46 0 0 0 2.8-.54 5.91 5.91 0 0 0 3.38-3.38 8.46 8.46 0 0 0 .54-2.8c.06-1.23.07-1.62.07-4.76s0-3.53-.07-4.76a8.46 8.46 0 0 0-.54-2.8 5.9 5.9 0 0 0-3.38-3.38 8.49 8.49 0 0 0-2.8-.54c-1.23-.06-1.62-.07-4.76-.07" fill="#fff"/>
  <path d="M16 9.9a5.93 5.93 0 1 0 5.93 5.93A5.93 5.93 0 0 0 16 9.9m0 9.78a3.85 3.85 0 1 1 3.85-3.85A3.85 3.85 0 0 1 16 19.68m7.55-10.01a1.39 1.39 0 1 1-1.39-1.39 1.39 1.39 0 0 1 1.39 1.39" fill="#fff"/>
</svg>
