<svg xmlns="http://www.w3.org/2000/svg" viewBox="0 0 32 32">
  <path d="M28 32H4a4 4 0 0 1-4-4V4a4 4 0 0 1 4-4h24a4 4 0 0 1 4 4v24a4 4 0 0 1-4 4" fill="#fff"/>
  <path d="M28 32H4a4 4 0 0 1-4-4V4a4 4 0 0 1 4-4h24a4 4 0 0 1 4 4v24a4 4 0 0 1-4 4" fill="#fcb316"/>
  <path d="M14.39 19.58c-.61 3.2-1.36 6.27-3.57 7.87-.68-4.84 1-8.47 1.78-12.33-1.33-2.24.16-6.76 3-5.64 3.46 1.37-3 8.34 1.34 9.21 4.52.91 6.37-7.85 3.56-10.69-4.05-4.11-11.79-.09-10.84 5.79.23 1.44 1.72 1.88.59 3.86-2.59-.57-3.37-2.62-3.27-5.35.16-4.46 4-7.59 7.87-8 4.88-.55 9.47 1.79 10.1 6.39.71 5.18-2.2 10.8-7.43 10.4-1.42-.11-2-.81-3.12-1.49" fill="#fff"/>
</svg>
