<svg xmlns="http://www.w3.org/2000/svg" viewBox="0 0 37.03 29.63">
  <path d="M39.93,35.21a4.13,4.13,0,0,1,2.43.75,2.08,2.08,0,0,1,1.07,1.65,2.1,2.1,0,0,1-.71,1.32A22.27,22.27,0,0,0,39.31,43a6.52,6.52,0,0,0-1,3.33,2.78,2.78,0,0,0,1.24,2.18A12.86,12.86,0,0,1,43,52.13a8.2,8.2,0,0,1,1,4.1,8.52,8.52,0,0,1-2.37,6.15,7.9,7.9,0,0,1-5.94,2.46,8.08,8.08,0,0,1-6.54-3.12,10.13,10.13,0,0,1-2.26-6.58q0-9.06,8.76-17.75A6.34,6.34,0,0,1,39.93,35.21Zm19.93,0a4.12,4.12,0,0,1,2.42.75,2.08,2.08,0,0,1,1.07,1.65,2.06,2.06,0,0,1-.75,1.32A22.83,22.83,0,0,0,59.24,43a6.52,6.52,0,0,0-1,3.33,2.78,2.78,0,0,0,1.24,2.18,12.84,12.84,0,0,1,3.42,3.61,8.19,8.19,0,0,1,1,4.1,8.52,8.52,0,0,1-2.37,6.15,7.9,7.9,0,0,1-5.94,2.46,8.08,8.08,0,0,1-6.54-3.12,10.13,10.13,0,0,1-2.26-6.58q0-9.06,8.76-17.75A6.34,6.34,0,0,1,59.86,35.21Z" transform="translate(-26.89 -35.21)" fill="#ededed"/>
</svg>
